<?xml version="1.0" standalone="no"?>
<!DOCTYPE svg PUBLIC "-//W3C//DTD SVG 20010904//EN"
 "http://www.w3.org/TR/2001/REC-SVG-20010904/DTD/svg10.dtd">
<svg version="1.0" xmlns="http://www.w3.org/2000/svg"
 width="640.000000pt" height="640.000000pt" viewBox="0 0 640.000000 640.000000"
 preserveAspectRatio="xMidYMid meet">
<metadata>
Created by potrace 1.16, written by Peter Selinger 2001-2019
</metadata>
<g transform="translate(0.000000,640.000000) scale(0.100000,-0.100000)"
fill="#000000" stroke="none">
<path d="M2801 5386 c2 -2 71 -7 154 -11 82 -3 152 -11 155 -16 4 -5 21 -62
40 -127 19 -64 38 -119 42 -120 4 -2 6 -7 4 -11 -3 -4 20 -90 50 -192 70 -232
72 -238 73 -217 1 9 -3 28 -9 43 -5 14 -12 36 -14 48 -8 39 -66 261 -81 307
-8 25 -27 100 -42 166 l-28 122 -65 6 c-71 6 -286 8 -279 2z"/>
<path d="M3180 5373 c0 -12 93 -23 190 -23 37 0 101 -3 142 -6 l75 -7 -32
-111 c-38 -131 -101 -350 -120 -421 -8 -27 -21 -72 -29 -100 -17 -56 -20 -94
-5 -55 24 58 200 684 195 695 -3 8 -48 14 -133 18 -70 4 -163 9 -205 13 -50 5
-78 3 -78 -3z"/>
<path d="M2178 3613 c-2 -10 0 -56 5 -103 10 -107 13 -1608 3 -1792 l-8 -138
149 -1 c81 0 281 -2 443 -3 162 -2 365 -1 451 1 l156 5 32 55 c17 31 29 58 27
61 -3 3 -61 -9 -128 -26 -172 -43 -264 -53 -577 -59 -305 -7 -291 -10 -291 65
l0 42 -109 0 -110 0 5 33 c18 137 24 383 24 1000 0 392 -3 749 -7 795 -6 81
-6 82 -34 82 -18 0 -29 -6 -31 -17z"/>
<path d="M2515 3620 c-14 -23 12 -30 118 -30 185 0 433 -35 563 -80 31 -11 62
-20 68 -20 11 0 106 120 106 133 0 12 -848 8 -855 -3z"/>
<path d="M3787 3623 c-2 -5 0 -55 5 -113 10 -118 17 -2020 8 -2117 -3 -35 -3
-63 1 -63 14 0 41 87 50 164 10 91 12 1849 2 2024 l-6 112 -28 0 c-15 0 -30
-3 -32 -7z"/>
<path d="M2998 2695 c-3 -3 -113 -9 -244 -13 -174 -5 -239 -10 -239 -19 0 -9
58 -13 210 -18 116 -3 248 -9 295 -14 47 -5 88 -7 93 -4 4 2 7 20 7 39 l0 34
-58 0 c-32 0 -61 -2 -64 -5z"/>
<path d="M3981 1305 c-39 -40 -95 -74 -166 -101 -32 -12 -69 -38 -105 -75 -31
-31 -70 -64 -88 -73 -35 -18 -42 -36 -15 -36 74 0 243 78 311 143 40 39 122
177 105 177 -5 0 -23 -16 -42 -35z"/>
</g>
</svg>
